%TF.GenerationSoftware,KiCad,Pcbnew,(7.0.0)*%
%TF.CreationDate,2023-03-04T17:42:30+02:00*%
%TF.ProjectId,RN-distorsiuni,524e2d64-6973-4746-9f72-7369756e692e,rev?*%
%TF.SameCoordinates,Original*%
%TF.FileFunction,Copper,L2,Bot*%
%TF.FilePolarity,Positive*%
%FSLAX46Y46*%
G04 Gerber Fmt 4.6, Leading zero omitted, Abs format (unit mm)*
G04 Created by KiCad (PCBNEW (7.0.0)) date 2023-03-04 17:42:30*
%MOMM*%
%LPD*%
G01*
G04 APERTURE LIST*
%TA.AperFunction,ComponentPad*%
%ADD10C,4.500000*%
%TD*%
%TA.AperFunction,ComponentPad*%
%ADD11C,1.600000*%
%TD*%
%TA.AperFunction,ComponentPad*%
%ADD12O,1.600000X1.600000*%
%TD*%
%TA.AperFunction,ComponentPad*%
%ADD13R,2.600000X2.600000*%
%TD*%
%TA.AperFunction,ComponentPad*%
%ADD14C,2.600000*%
%TD*%
%TA.AperFunction,ComponentPad*%
%ADD15R,1.700000X1.700000*%
%TD*%
%TA.AperFunction,ComponentPad*%
%ADD16O,1.700000X1.700000*%
%TD*%
%TA.AperFunction,ComponentPad*%
%ADD17C,2.800000*%
%TD*%
%TA.AperFunction,ComponentPad*%
%ADD18R,1.600000X1.600000*%
%TD*%
%TA.AperFunction,ComponentPad*%
%ADD19C,3.600000*%
%TD*%
%TA.AperFunction,ConnectorPad*%
%ADD20C,5.700000*%
%TD*%
%TA.AperFunction,ComponentPad*%
%ADD21R,2.200000X2.200000*%
%TD*%
%TA.AperFunction,ComponentPad*%
%ADD22O,2.200000X2.200000*%
%TD*%
%TA.AperFunction,ComponentPad*%
%ADD23R,1.905000X2.000000*%
%TD*%
%TA.AperFunction,ComponentPad*%
%ADD24O,1.905000X2.000000*%
%TD*%
%TA.AperFunction,ComponentPad*%
%ADD25R,1.800000X1.800000*%
%TD*%
%TA.AperFunction,ComponentPad*%
%ADD26O,1.800000X1.800000*%
%TD*%
%TA.AperFunction,ComponentPad*%
%ADD27C,1.800000*%
%TD*%
%TA.AperFunction,Conductor*%
%ADD28C,0.600000*%
%TD*%
G04 APERTURE END LIST*
D10*
%TO.P,TP14,1,1*%
%TO.N,GND*%
X112500000Y-131000000D03*
%TD*%
D11*
%TO.P,Rs1,1*%
%TO.N,Net-(Dled1-A)*%
X162155329Y-65373772D03*
D12*
%TO.P,Rs1,2*%
%TO.N,+5V*%
X151995328Y-65373771D03*
%TD*%
D11*
%TO.P,R1,1*%
%TO.N,Net-(C2-Pad1)*%
X171500000Y-73626617D03*
D12*
%TO.P,R1,2*%
%TO.N,Net-(D1-K)*%
X171499999Y-63466616D03*
%TD*%
D13*
%TO.P,Js_alt1,1,Pin_1*%
%TO.N,GND*%
X210999999Y-63499999D03*
D14*
%TO.P,Js_alt1,2,Pin_2*%
%TO.N,Net-(D1-A)*%
X206000000Y-63500000D03*
%TD*%
D15*
%TO.P,J3,1,Pin_1*%
%TO.N,Net-(J3-Pin_1)*%
X160999999Y-81999999D03*
D16*
%TO.P,J3,2,Pin_2*%
%TO.N,Net-(J3-Pin_2)*%
X158459999Y-81999999D03*
%TO.P,J3,3,Pin_3*%
X155919999Y-81999999D03*
%TD*%
D11*
%TO.P,Cs2,1*%
%TO.N,+5V*%
X152000000Y-71000000D03*
%TO.P,Cs2,2*%
%TO.N,GND*%
X152000000Y-76000000D03*
%TD*%
%TO.P,R3,1*%
%TO.N,Net-(J3-Pin_2)*%
X136566764Y-96243235D03*
D12*
%TO.P,R3,2*%
%TO.N,GND*%
X136566763Y-106403234D03*
%TD*%
D11*
%TO.P,C2,1*%
%TO.N,Net-(C2-Pad1)*%
X171500000Y-80000000D03*
%TO.P,C2,2*%
%TO.N,Net-(J3-Pin_1)*%
X171500000Y-82000000D03*
%TD*%
D17*
%TO.P,TP11,1,1*%
%TO.N,IN*%
X108500000Y-84500000D03*
%TD*%
D18*
%TO.P,U1,1,NULL*%
%TO.N,unconnected-(U1-NULL-Pad1)*%
X153699999Y-89699999D03*
D12*
%TO.P,U1,2,-*%
%TO.N,Net-(U1--)*%
X153699999Y-92239999D03*
%TO.P,U1,3,+*%
%TO.N,Net-(J3-Pin_2)*%
X153699999Y-94779999D03*
%TO.P,U1,4,V-*%
%TO.N,-5V*%
X153699999Y-97319999D03*
%TO.P,U1,5,NULL*%
%TO.N,unconnected-(U1-NULL-Pad5)*%
X161319999Y-97319999D03*
%TO.P,U1,6*%
%TO.N,Net-(J1-Pin_1)*%
X161319999Y-94779999D03*
%TO.P,U1,7,V+*%
%TO.N,+5V*%
X161319999Y-92239999D03*
%TO.P,U1,8,NC*%
%TO.N,unconnected-(U1-NC-Pad8)*%
X161319999Y-89699999D03*
%TD*%
D11*
%TO.P,RL2,1*%
%TO.N,Net-(J4-Pin_4)*%
X208000000Y-134500000D03*
D12*
%TO.P,RL2,2*%
%TO.N,GND*%
X207999999Y-144659999D03*
%TD*%
D11*
%TO.P,C3,1*%
%TO.N,IN*%
X119000000Y-90810000D03*
%TO.P,C3,2*%
%TO.N,Net-(C3-Pad2)*%
X121000000Y-90810000D03*
%TD*%
D17*
%TO.P,TP8,1,1*%
%TO.N,Net-(J4-Pin_4)*%
X208000000Y-120000000D03*
%TD*%
D18*
%TO.P,C1,1*%
%TO.N,Net-(D1-K)*%
X181383196Y-63458878D03*
D11*
%TO.P,C1,2*%
%TO.N,GND*%
X181383197Y-65958879D03*
%TD*%
D19*
%TO.P,H3,1*%
%TO.N,N/C*%
X221400000Y-65100000D03*
D20*
X221400000Y-65100000D03*
%TD*%
D10*
%TO.P,TP1,1,1*%
%TO.N,GND*%
X94500000Y-106500000D03*
%TD*%
D17*
%TO.P,TP6,1,1*%
%TO.N,Net-(J1-Pin_4)*%
X217000000Y-84000000D03*
%TD*%
D11*
%TO.P,Cs4,1*%
%TO.N,-5V*%
X152500000Y-141000000D03*
%TO.P,Cs4,2*%
%TO.N,GND*%
X152500000Y-136000000D03*
%TD*%
%TO.P,C4,1*%
%TO.N,IN*%
X118993008Y-118466002D03*
%TO.P,C4,2*%
%TO.N,Net-(U2-+)*%
X120993008Y-118466002D03*
%TD*%
%TO.P,R9,1*%
%TO.N,Net-(U2-+)*%
X136449866Y-118430360D03*
D12*
%TO.P,R9,2*%
%TO.N,GND*%
X136449865Y-128590359D03*
%TD*%
D13*
%TO.P,Js3,1,Pin_1*%
%TO.N,Net-(Ds3-K)*%
X93499999Y-125999999D03*
D14*
%TO.P,Js3,2,Pin_2*%
X93500000Y-131000000D03*
%TD*%
D21*
%TO.P,Ds1,1,K*%
%TO.N,Net-(Ds1-K)*%
X119999999Y-70954509D03*
D22*
%TO.P,Ds1,2,A*%
%TO.N,Net-(Ds1-A)*%
X109839999Y-70954509D03*
%TD*%
D11*
%TO.P,Cs3,1*%
%TO.N,Net-(Ds3-A)*%
X129500000Y-141000000D03*
%TO.P,Cs3,2*%
%TO.N,GND*%
X129500000Y-139000000D03*
%TD*%
D15*
%TO.P,J1,1,Pin_1*%
%TO.N,Net-(J1-Pin_1)*%
X167139696Y-110757277D03*
D16*
%TO.P,J1,2,Pin_2*%
%TO.N,Net-(J1-Pin_2)*%
X169679696Y-110757277D03*
%TO.P,J1,3,Pin_3*%
X172219696Y-110757277D03*
%TO.P,J1,4,Pin_4*%
%TO.N,Net-(J1-Pin_4)*%
X174759696Y-110757277D03*
%TD*%
D17*
%TO.P,TP7,1,1*%
%TO.N,Net-(J4-Pin_1)*%
X172336532Y-118918266D03*
%TD*%
D11*
%TO.P,R2,1*%
%TO.N,Net-(J3-Pin_2)*%
X136580000Y-90810000D03*
D12*
%TO.P,R2,2*%
%TO.N,Net-(C3-Pad2)*%
X126419999Y-90809999D03*
%TD*%
D21*
%TO.P,D1,1,K*%
%TO.N,Net-(D1-K)*%
X188919999Y-63499999D03*
D22*
%TO.P,D1,2,A*%
%TO.N,Net-(D1-A)*%
X199079999Y-63499999D03*
%TD*%
D11*
%TO.P,R6,1*%
%TO.N,Net-(D2-K)*%
X177300000Y-94772448D03*
D12*
%TO.P,R6,2*%
%TO.N,Net-(J1-Pin_1)*%
X167139999Y-94772447D03*
%TD*%
D23*
%TO.P,U4,1,GND*%
%TO.N,GND*%
X139459999Y-135944999D03*
D24*
%TO.P,U4,2,VI*%
%TO.N,Net-(Ds3-A)*%
X141999999Y-135944999D03*
%TO.P,U4,3,VO*%
%TO.N,-5V*%
X144539999Y-135944999D03*
%TD*%
D18*
%TO.P,D3,1,K*%
%TO.N,Net-(D3-K)*%
X190994643Y-105903449D03*
D12*
%TO.P,D3,2,A*%
%TO.N,Net-(D2-K)*%
X190994643Y-98283449D03*
%TD*%
D25*
%TO.P,Q1,1,E*%
%TO.N,Net-(J1-Pin_4)*%
X206390552Y-83170345D03*
D26*
%TO.P,Q1,2,C*%
%TO.N,+5V*%
X206390552Y-80630345D03*
%TO.P,Q1,3,B*%
%TO.N,Net-(D2-A)*%
X206390552Y-78090345D03*
%TD*%
D10*
%TO.P,J5,1,Pin_1*%
%TO.N,IN*%
X94687311Y-90853164D03*
%TD*%
D11*
%TO.P,R5,1*%
%TO.N,Net-(U1--)*%
X151420000Y-110810000D03*
D12*
%TO.P,R5,2*%
%TO.N,Net-(J1-Pin_2)*%
X161579999Y-110809999D03*
%TD*%
D17*
%TO.P,TP13,1,1*%
%TO.N,Net-(U2-+)*%
X129000000Y-112000000D03*
%TD*%
D25*
%TO.P,Dled1,1,K*%
%TO.N,GND*%
X162155328Y-76039999D03*
D27*
%TO.P,Dled1,2,A*%
%TO.N,Net-(Dled1-A)*%
X162155329Y-73500000D03*
%TD*%
D23*
%TO.P,U3,1,IN*%
%TO.N,Net-(Ds1-K)*%
X139499999Y-70999999D03*
D24*
%TO.P,U3,2,GND*%
%TO.N,GND*%
X142039999Y-70999999D03*
%TO.P,U3,3,OUT*%
%TO.N,+5V*%
X144579999Y-70999999D03*
%TD*%
D25*
%TO.P,Q4,1,E*%
%TO.N,Net-(J4-Pin_4)*%
X193987075Y-142389999D03*
D26*
%TO.P,Q4,2,C*%
%TO.N,-5V*%
X193987075Y-139849999D03*
%TO.P,Q4,3,B*%
%TO.N,Net-(Q3-B)*%
X193987075Y-137309999D03*
%TD*%
D17*
%TO.P,TP4,1,1*%
%TO.N,Net-(D1-K)*%
X166747136Y-63482816D03*
%TD*%
D13*
%TO.P,Js2,1,Pin_1*%
%TO.N,GND*%
X93499999Y-114499999D03*
D14*
%TO.P,Js2,2,Pin_2*%
X93500000Y-119500000D03*
%TD*%
D25*
%TO.P,Dled2,1,K*%
%TO.N,Net-(Dled2-K)*%
X162621210Y-138539999D03*
D27*
%TO.P,Dled2,2,A*%
%TO.N,GND*%
X162621211Y-136000000D03*
%TD*%
D11*
%TO.P,Cs1,1*%
%TO.N,Net-(Ds1-K)*%
X129500000Y-70954510D03*
%TO.P,Cs1,2*%
%TO.N,GND*%
X129500000Y-72954510D03*
%TD*%
D17*
%TO.P,TP9,1,1*%
%TO.N,+5V*%
X152000000Y-61000000D03*
%TD*%
D15*
%TO.P,J2,1,Pin_1*%
%TO.N,+5V*%
X185931040Y-72671792D03*
D16*
%TO.P,J2,2,Pin_2*%
%TO.N,Net-(J2-Pin_2)*%
X183391040Y-72671792D03*
%TO.P,J2,3,Pin_3*%
X180851040Y-72671792D03*
%TO.P,J2,4,Pin_4*%
%TO.N,Net-(D1-K)*%
X178311040Y-72671792D03*
%TD*%
D18*
%TO.P,U2,1,NULL*%
%TO.N,unconnected-(U2-NULL-Pad1)*%
X154199999Y-119346889D03*
D12*
%TO.P,U2,2,-*%
%TO.N,Net-(J4-Pin_2)*%
X154199999Y-121886889D03*
%TO.P,U2,3,+*%
%TO.N,Net-(U2-+)*%
X154199999Y-124426889D03*
%TO.P,U2,4,V-*%
%TO.N,-5V*%
X154199999Y-126966889D03*
%TO.P,U2,5,NULL*%
%TO.N,unconnected-(U2-NULL-Pad5)*%
X161819999Y-126966889D03*
%TO.P,U2,6*%
%TO.N,Net-(J4-Pin_1)*%
X161819999Y-124426889D03*
%TO.P,U2,7,V+*%
%TO.N,+5V*%
X161819999Y-121886889D03*
%TO.P,U2,8,NC*%
%TO.N,unconnected-(U2-NC-Pad8)*%
X161819999Y-119346889D03*
%TD*%
D11*
%TO.P,R10,1*%
%TO.N,Net-(Q3-B)*%
X182500000Y-124414569D03*
D12*
%TO.P,R10,2*%
%TO.N,Net-(J4-Pin_1)*%
X172339999Y-124414568D03*
%TD*%
D25*
%TO.P,Q2,1,E*%
%TO.N,Net-(J1-Pin_4)*%
X206436412Y-95406965D03*
D26*
%TO.P,Q2,2,C*%
%TO.N,-5V*%
X206436412Y-92866965D03*
%TO.P,Q2,3,B*%
%TO.N,Net-(D3-K)*%
X206436412Y-90326965D03*
%TD*%
D18*
%TO.P,D2,1,K*%
%TO.N,Net-(D2-K)*%
X190994643Y-90783449D03*
D12*
%TO.P,D2,2,A*%
%TO.N,Net-(D2-A)*%
X190994643Y-83163449D03*
%TD*%
D17*
%TO.P,TP10,1,1*%
%TO.N,-5V*%
X147086491Y-145103405D03*
%TD*%
D25*
%TO.P,Q3,1,E*%
%TO.N,Net-(J4-Pin_4)*%
X194112075Y-129514628D03*
D26*
%TO.P,Q3,2,C*%
%TO.N,+5V*%
X194112075Y-126974628D03*
%TO.P,Q3,3,B*%
%TO.N,Net-(Q3-B)*%
X194112075Y-124434628D03*
%TD*%
D11*
%TO.P,R4,1*%
%TO.N,GND*%
X136570219Y-110826691D03*
D12*
%TO.P,R4,2*%
%TO.N,Net-(U1--)*%
X146730218Y-110826690D03*
%TD*%
D11*
%TO.P,Rs2,1*%
%TO.N,Net-(Dled2-K)*%
X162648923Y-144500000D03*
D12*
%TO.P,Rs2,2*%
%TO.N,-5V*%
X152488922Y-144499999D03*
%TD*%
D11*
%TO.P,RL1,1*%
%TO.N,Net-(J1-Pin_4)*%
X217000000Y-90000000D03*
D12*
%TO.P,RL1,2*%
%TO.N,GND*%
X216999999Y-100159999D03*
%TD*%
D21*
%TO.P,Ds3,1,K*%
%TO.N,Net-(Ds3-K)*%
X109419999Y-140999999D03*
D22*
%TO.P,Ds3,2,A*%
%TO.N,Net-(Ds3-A)*%
X119579999Y-140999999D03*
%TD*%
D19*
%TO.P,H1,1*%
%TO.N,N/C*%
X222400000Y-141900000D03*
D20*
X222400000Y-141900000D03*
%TD*%
D11*
%TO.P,R7,1*%
%TO.N,-5V*%
X201074644Y-111283450D03*
D12*
%TO.P,R7,2*%
%TO.N,Net-(D3-K)*%
X190914643Y-111283449D03*
%TD*%
D19*
%TO.P,H2,1*%
%TO.N,N/C*%
X94600000Y-141900000D03*
D20*
X94600000Y-141900000D03*
%TD*%
D15*
%TO.P,J4,1,Pin_1*%
%TO.N,Net-(J4-Pin_1)*%
X172419999Y-130999999D03*
D16*
%TO.P,J4,2,Pin_2*%
%TO.N,Net-(J4-Pin_2)*%
X174959999Y-130999999D03*
%TO.P,J4,3,Pin_3*%
X177499999Y-130999999D03*
%TO.P,J4,4,Pin_4*%
%TO.N,Net-(J4-Pin_4)*%
X180039999Y-130999999D03*
%TD*%
D10*
%TO.P,TP3,1,1*%
%TO.N,GND*%
X223000000Y-126000000D03*
%TD*%
D19*
%TO.P,H4,1*%
%TO.N,N/C*%
X94600000Y-65100000D03*
D20*
X94600000Y-65100000D03*
%TD*%
D17*
%TO.P,TP12,1,1*%
%TO.N,Net-(J3-Pin_2)*%
X146000000Y-88000000D03*
%TD*%
%TO.P,TP5,1,1*%
%TO.N,Net-(J1-Pin_1)*%
X171500000Y-100500000D03*
%TD*%
D11*
%TO.P,R8,1*%
%TO.N,Net-(D2-A)*%
X190994644Y-78053450D03*
D12*
%TO.P,R8,2*%
%TO.N,Net-(J2-Pin_2)*%
X180834643Y-78053449D03*
%TD*%
D21*
%TO.P,Ds2,1,K*%
%TO.N,Net-(Ds1-K)*%
X127419999Y-63999999D03*
D22*
%TO.P,Ds2,2,A*%
%TO.N,+5V*%
X137579999Y-63999999D03*
%TD*%
D21*
%TO.P,Ds4,1,K*%
%TO.N,-5V*%
X147079999Y-140999999D03*
D22*
%TO.P,Ds4,2,A*%
%TO.N,Net-(Ds3-A)*%
X136919999Y-140999999D03*
%TD*%
D10*
%TO.P,TP2,1,1*%
%TO.N,GND*%
X175206888Y-144660836D03*
%TD*%
D13*
%TO.P,Js1,1,Pin_1*%
%TO.N,Net-(Ds1-A)*%
X93499999Y-75999999D03*
D14*
%TO.P,Js1,2,Pin_2*%
X93500000Y-81000000D03*
%TD*%
D28*
%TO.N,GND*%
X136469999Y-106500000D02*
X136566764Y-106403235D01*
X129500000Y-106500000D02*
X136469999Y-106500000D01*
X152500000Y-136000000D02*
X162621211Y-136000000D01*
X129500000Y-72954510D02*
X129500000Y-106500000D01*
X94500000Y-106500000D02*
X129500000Y-106500000D01*
%TO.N,+5V*%
X184500000Y-69000000D02*
X185931041Y-70431041D01*
X198000000Y-125500000D02*
X198000000Y-122000000D01*
X194112076Y-126974629D02*
X196525371Y-126974629D01*
X161820000Y-121886890D02*
X197886890Y-121886890D01*
X157500000Y-69000000D02*
X184500000Y-69000000D01*
X197886890Y-121886890D02*
X198000000Y-122000000D01*
X185931041Y-70431041D02*
X185931041Y-72671793D01*
X206390553Y-80630346D02*
X199000000Y-80630346D01*
X187630346Y-80630346D02*
X185931041Y-78931041D01*
X185931041Y-78931041D02*
X185931041Y-72671793D01*
X199000000Y-80630346D02*
X198000000Y-80630346D01*
X196525371Y-126974629D02*
X198000000Y-125500000D01*
X198000000Y-80630346D02*
X187630346Y-80630346D01*
X152000000Y-71000000D02*
X155500000Y-71000000D01*
X155500000Y-71000000D02*
X157500000Y-69000000D01*
X198000000Y-122000000D02*
X198000000Y-80630346D01*
%TO.N,-5V*%
X150466890Y-126966890D02*
X154200000Y-126966890D01*
X149000000Y-99000000D02*
X149000000Y-125500000D01*
X173150000Y-139850000D02*
X193987076Y-139850000D01*
X149000000Y-125500000D02*
X150466890Y-126966890D01*
X201074644Y-138925356D02*
X201074644Y-111283450D01*
X172000000Y-141000000D02*
X173150000Y-139850000D01*
X152500000Y-141000000D02*
X172000000Y-141000000D01*
X200150000Y-139850000D02*
X201074644Y-138925356D01*
X150680000Y-97320000D02*
X149000000Y-99000000D01*
X153700000Y-97320000D02*
X150680000Y-97320000D01*
X193987076Y-139850000D02*
X200150000Y-139850000D01*
%TD*%
M02*
