M48
; DRILL file {KiCad (7.0.0)} date Sat Mar  4 17:42:32 2023
; FORMAT={-:-/ absolute / metric / decimal}
; #@! TF.CreationDate,2023-03-04T17:42:32+02:00
; #@! TF.GenerationSoftware,Kicad,Pcbnew,(7.0.0)
; #@! TF.FileFunction,Plated,1,2,PTH
FMAT,2
METRIC
; #@! TA.AperFunction,Plated,PTH,ComponentDrill
T1C0.800
; #@! TA.AperFunction,Plated,PTH,ComponentDrill
T2C0.900
; #@! TA.AperFunction,Plated,PTH,ComponentDrill
T3C1.000
; #@! TA.AperFunction,Plated,PTH,ComponentDrill
T4C1.100
; #@! TA.AperFunction,Plated,PTH,ComponentDrill
T5C1.300
; #@! TA.AperFunction,Plated,PTH,ComponentDrill
T6C1.600
; #@! TA.AperFunction,Plated,PTH,ComponentDrill
T7C2.520
; #@! TA.AperFunction,Plated,PTH,ComponentDrill
T8C3.200
%
G90
G05
T1
X118.993Y-118.466
X119.0Y-90.81
X120.993Y-118.466
X121.0Y-90.81
X126.42Y-90.81
X129.5Y-70.955
X129.5Y-72.955
X129.5Y-139.0
X129.5Y-141.0
X136.45Y-118.43
X136.45Y-128.59
X136.567Y-96.243
X136.567Y-106.403
X136.57Y-110.827
X136.58Y-90.81
X146.73Y-110.827
X151.42Y-110.81
X151.995Y-65.374
X152.0Y-71.0
X152.0Y-76.0
X152.489Y-144.5
X152.5Y-136.0
X152.5Y-141.0
X153.7Y-89.7
X153.7Y-92.24
X153.7Y-94.78
X153.7Y-97.32
X154.2Y-119.347
X154.2Y-121.887
X154.2Y-124.427
X154.2Y-126.967
X161.32Y-89.7
X161.32Y-92.24
X161.32Y-94.78
X161.32Y-97.32
X161.58Y-110.81
X161.82Y-119.347
X161.82Y-121.887
X161.82Y-124.427
X161.82Y-126.967
X162.155Y-65.374
X162.649Y-144.5
X167.14Y-94.772
X171.5Y-63.467
X171.5Y-73.627
X171.5Y-80.0
X171.5Y-82.0
X172.34Y-124.415
X177.3Y-94.772
X180.835Y-78.053
X181.383Y-63.459
X181.383Y-65.959
X182.5Y-124.415
X190.915Y-111.283
X190.995Y-78.053
X190.995Y-83.163
X190.995Y-90.783
X190.995Y-98.283
X190.995Y-105.903
X201.075Y-111.283
X208.0Y-134.5
X208.0Y-144.66
X217.0Y-90.0
X217.0Y-100.16
T2
X162.155Y-73.5
X162.155Y-76.04
X162.621Y-136.0
X162.621Y-138.54
T3
X155.92Y-82.0
X158.46Y-82.0
X161.0Y-82.0
X167.14Y-110.757
X169.68Y-110.757
X172.22Y-110.757
X172.42Y-131.0
X174.76Y-110.757
X174.96Y-131.0
X177.5Y-131.0
X178.311Y-72.672
X180.04Y-131.0
X180.851Y-72.672
X183.391Y-72.672
X185.931Y-72.672
X193.987Y-137.31
X193.987Y-139.85
X193.987Y-142.39
X194.112Y-124.435
X194.112Y-126.975
X194.112Y-129.515
X206.391Y-78.09
X206.391Y-80.63
X206.391Y-83.17
X206.436Y-90.327
X206.436Y-92.867
X206.436Y-95.407
T4
X109.42Y-141.0
X109.84Y-70.955
X119.58Y-141.0
X120.0Y-70.955
X127.42Y-64.0
X136.92Y-141.0
X137.58Y-64.0
X139.46Y-135.945
X139.5Y-71.0
X142.0Y-135.945
X142.04Y-71.0
X144.54Y-135.945
X144.58Y-71.0
X147.08Y-141.0
X188.92Y-63.5
X199.08Y-63.5
T5
X93.5Y-76.0
X93.5Y-81.0
X93.5Y-114.5
X93.5Y-119.5
X93.5Y-126.0
X93.5Y-131.0
X206.0Y-63.5
X211.0Y-63.5
T6
X108.5Y-84.5
X129.0Y-112.0
X146.0Y-88.0
X147.086Y-145.103
X152.0Y-61.0
X166.747Y-63.483
X171.5Y-100.5
X172.337Y-118.918
X208.0Y-120.0
X217.0Y-84.0
T7
X94.5Y-106.5
X94.687Y-90.853
X112.5Y-131.0
X175.207Y-144.661
X223.0Y-126.0
T8
X94.6Y-65.1
X94.6Y-141.9
X221.4Y-65.1
X222.4Y-141.9
T0
M30
