%TF.GenerationSoftware,KiCad,Pcbnew,(7.0.0)*%
%TF.CreationDate,2023-03-04T17:42:30+02:00*%
%TF.ProjectId,RN-distorsiuni,524e2d64-6973-4746-9f72-7369756e692e,rev?*%
%TF.SameCoordinates,Original*%
%TF.FileFunction,Soldermask,Top*%
%TF.FilePolarity,Negative*%
%FSLAX46Y46*%
G04 Gerber Fmt 4.6, Leading zero omitted, Abs format (unit mm)*
G04 Created by KiCad (PCBNEW (7.0.0)) date 2023-03-04 17:42:30*
%MOMM*%
%LPD*%
G01*
G04 APERTURE LIST*
%ADD10C,4.500000*%
%ADD11C,1.600000*%
%ADD12O,1.600000X1.600000*%
%ADD13R,2.600000X2.600000*%
%ADD14C,2.600000*%
%ADD15R,1.700000X1.700000*%
%ADD16O,1.700000X1.700000*%
%ADD17C,2.800000*%
%ADD18R,1.600000X1.600000*%
%ADD19C,3.600000*%
%ADD20C,5.700000*%
%ADD21R,2.200000X2.200000*%
%ADD22O,2.200000X2.200000*%
%ADD23R,1.905000X2.000000*%
%ADD24O,1.905000X2.000000*%
%ADD25R,1.800000X1.800000*%
%ADD26O,1.800000X1.800000*%
%ADD27C,1.800000*%
G04 APERTURE END LIST*
D10*
%TO.C,TP14*%
X112500000Y-131000000D03*
%TD*%
D11*
%TO.C,Rs1*%
X162155329Y-65373772D03*
D12*
X151995328Y-65373771D03*
%TD*%
D11*
%TO.C,R1*%
X171500000Y-73626617D03*
D12*
X171499999Y-63466616D03*
%TD*%
D13*
%TO.C,Js_alt1*%
X210999999Y-63499999D03*
D14*
X206000000Y-63500000D03*
%TD*%
D15*
%TO.C,J3*%
X160999999Y-81999999D03*
D16*
X158459999Y-81999999D03*
X155919999Y-81999999D03*
%TD*%
D11*
%TO.C,Cs2*%
X152000000Y-71000000D03*
X152000000Y-76000000D03*
%TD*%
%TO.C,R3*%
X136566764Y-96243235D03*
D12*
X136566763Y-106403234D03*
%TD*%
D11*
%TO.C,C2*%
X171500000Y-80000000D03*
X171500000Y-82000000D03*
%TD*%
D17*
%TO.C,TP11*%
X108500000Y-84500000D03*
%TD*%
D18*
%TO.C,U1*%
X153699999Y-89699999D03*
D12*
X153699999Y-92239999D03*
X153699999Y-94779999D03*
X153699999Y-97319999D03*
X161319999Y-97319999D03*
X161319999Y-94779999D03*
X161319999Y-92239999D03*
X161319999Y-89699999D03*
%TD*%
D11*
%TO.C,RL2*%
X208000000Y-134500000D03*
D12*
X207999999Y-144659999D03*
%TD*%
D11*
%TO.C,C3*%
X119000000Y-90810000D03*
X121000000Y-90810000D03*
%TD*%
D17*
%TO.C,TP8*%
X208000000Y-120000000D03*
%TD*%
D18*
%TO.C,C1*%
X181383196Y-63458878D03*
D11*
X181383197Y-65958879D03*
%TD*%
D19*
%TO.C,H3*%
X221400000Y-65100000D03*
D20*
X221400000Y-65100000D03*
%TD*%
D10*
%TO.C,TP1*%
X94500000Y-106500000D03*
%TD*%
D17*
%TO.C,TP6*%
X217000000Y-84000000D03*
%TD*%
D11*
%TO.C,Cs4*%
X152500000Y-141000000D03*
X152500000Y-136000000D03*
%TD*%
%TO.C,C4*%
X118993008Y-118466002D03*
X120993008Y-118466002D03*
%TD*%
%TO.C,R9*%
X136449866Y-118430360D03*
D12*
X136449865Y-128590359D03*
%TD*%
D13*
%TO.C,Js3*%
X93499999Y-125999999D03*
D14*
X93500000Y-131000000D03*
%TD*%
D21*
%TO.C,Ds1*%
X119999999Y-70954509D03*
D22*
X109839999Y-70954509D03*
%TD*%
D11*
%TO.C,Cs3*%
X129500000Y-141000000D03*
X129500000Y-139000000D03*
%TD*%
D15*
%TO.C,J1*%
X167139696Y-110757277D03*
D16*
X169679696Y-110757277D03*
X172219696Y-110757277D03*
X174759696Y-110757277D03*
%TD*%
D17*
%TO.C,TP7*%
X172336532Y-118918266D03*
%TD*%
D11*
%TO.C,R2*%
X136580000Y-90810000D03*
D12*
X126419999Y-90809999D03*
%TD*%
D21*
%TO.C,D1*%
X188919999Y-63499999D03*
D22*
X199079999Y-63499999D03*
%TD*%
D11*
%TO.C,R6*%
X177300000Y-94772448D03*
D12*
X167139999Y-94772447D03*
%TD*%
D23*
%TO.C,U4*%
X139459999Y-135944999D03*
D24*
X141999999Y-135944999D03*
X144539999Y-135944999D03*
%TD*%
D18*
%TO.C,D3*%
X190994643Y-105903449D03*
D12*
X190994643Y-98283449D03*
%TD*%
D25*
%TO.C,Q1*%
X206390552Y-83170345D03*
D26*
X206390552Y-80630345D03*
X206390552Y-78090345D03*
%TD*%
D10*
%TO.C,J5*%
X94687311Y-90853164D03*
%TD*%
D11*
%TO.C,R5*%
X151420000Y-110810000D03*
D12*
X161579999Y-110809999D03*
%TD*%
D17*
%TO.C,TP13*%
X129000000Y-112000000D03*
%TD*%
D25*
%TO.C,Dled1*%
X162155328Y-76039999D03*
D27*
X162155329Y-73500000D03*
%TD*%
D23*
%TO.C,U3*%
X139499999Y-70999999D03*
D24*
X142039999Y-70999999D03*
X144579999Y-70999999D03*
%TD*%
D25*
%TO.C,Q4*%
X193987075Y-142389999D03*
D26*
X193987075Y-139849999D03*
X193987075Y-137309999D03*
%TD*%
D17*
%TO.C,TP4*%
X166747136Y-63482816D03*
%TD*%
D13*
%TO.C,Js2*%
X93499999Y-114499999D03*
D14*
X93500000Y-119500000D03*
%TD*%
D25*
%TO.C,Dled2*%
X162621210Y-138539999D03*
D27*
X162621211Y-136000000D03*
%TD*%
D11*
%TO.C,Cs1*%
X129500000Y-70954510D03*
X129500000Y-72954510D03*
%TD*%
D17*
%TO.C,TP9*%
X152000000Y-61000000D03*
%TD*%
D15*
%TO.C,J2*%
X185931040Y-72671792D03*
D16*
X183391040Y-72671792D03*
X180851040Y-72671792D03*
X178311040Y-72671792D03*
%TD*%
D18*
%TO.C,U2*%
X154199999Y-119346889D03*
D12*
X154199999Y-121886889D03*
X154199999Y-124426889D03*
X154199999Y-126966889D03*
X161819999Y-126966889D03*
X161819999Y-124426889D03*
X161819999Y-121886889D03*
X161819999Y-119346889D03*
%TD*%
D11*
%TO.C,R10*%
X182500000Y-124414569D03*
D12*
X172339999Y-124414568D03*
%TD*%
D25*
%TO.C,Q2*%
X206436412Y-95406965D03*
D26*
X206436412Y-92866965D03*
X206436412Y-90326965D03*
%TD*%
D18*
%TO.C,D2*%
X190994643Y-90783449D03*
D12*
X190994643Y-83163449D03*
%TD*%
D17*
%TO.C,TP10*%
X147086491Y-145103405D03*
%TD*%
D25*
%TO.C,Q3*%
X194112075Y-129514628D03*
D26*
X194112075Y-126974628D03*
X194112075Y-124434628D03*
%TD*%
D11*
%TO.C,R4*%
X136570219Y-110826691D03*
D12*
X146730218Y-110826690D03*
%TD*%
D11*
%TO.C,Rs2*%
X162648923Y-144500000D03*
D12*
X152488922Y-144499999D03*
%TD*%
D11*
%TO.C,RL1*%
X217000000Y-90000000D03*
D12*
X216999999Y-100159999D03*
%TD*%
D21*
%TO.C,Ds3*%
X109419999Y-140999999D03*
D22*
X119579999Y-140999999D03*
%TD*%
D19*
%TO.C,H1*%
X222400000Y-141900000D03*
D20*
X222400000Y-141900000D03*
%TD*%
D11*
%TO.C,R7*%
X201074644Y-111283450D03*
D12*
X190914643Y-111283449D03*
%TD*%
D19*
%TO.C,H2*%
X94600000Y-141900000D03*
D20*
X94600000Y-141900000D03*
%TD*%
D15*
%TO.C,J4*%
X172419999Y-130999999D03*
D16*
X174959999Y-130999999D03*
X177499999Y-130999999D03*
X180039999Y-130999999D03*
%TD*%
D10*
%TO.C,TP3*%
X223000000Y-126000000D03*
%TD*%
D19*
%TO.C,H4*%
X94600000Y-65100000D03*
D20*
X94600000Y-65100000D03*
%TD*%
D17*
%TO.C,TP12*%
X146000000Y-88000000D03*
%TD*%
%TO.C,TP5*%
X171500000Y-100500000D03*
%TD*%
D11*
%TO.C,R8*%
X190994644Y-78053450D03*
D12*
X180834643Y-78053449D03*
%TD*%
D21*
%TO.C,Ds2*%
X127419999Y-63999999D03*
D22*
X137579999Y-63999999D03*
%TD*%
D21*
%TO.C,Ds4*%
X147079999Y-140999999D03*
D22*
X136919999Y-140999999D03*
%TD*%
D10*
%TO.C,TP2*%
X175206888Y-144660836D03*
%TD*%
D13*
%TO.C,Js1*%
X93499999Y-75999999D03*
D14*
X93500000Y-81000000D03*
%TD*%
M02*
